# xmcd
#
# Track frame offsets: 
#        150
#        21110
#        37907
#        54252
#        65357
#        76901
#        93181
#        105452
#        124618
#        140581
#        153280
#        168079
#        180833
#
# Disc length: 2563 seconds
#
# Revision: 1
# Processed by: cddbd v1.5.2PL0 Copyright (c) Steve Scherf et al.
# Submitted via: ExactAudioCopy v1.1
#
DISCID=8b0a010d
DTITLE=Tiny Moore and Jethro Burns - Back To Back (1979)_CD2
DYEAR=2004
DGENRE=Instrumental
TTITLE0=Back to Back
TTITLE1=Diane
TTITLE2=In a Mellotone
TTITLE3=Real Laid Back
TTITLE4=Flickin' My Pick
TTITLE5=Moonlight Waltz
TTITLE6=Jethro's Tune
TTITLE7=Swing '39
TTITLE8=Out of Nowhere
TTITLE9=Tickle Toe
TTITLE10=Tiny's Rag
TTITLE11=Groovin' High
TTITLE12=Maiden's Prayer
EXTD=
EXTT0=
EXTT1=
EXTT2=
EXTT3=
EXTT4=
EXTT5=
EXTT6=
EXTT7=
EXTT8=
EXTT9=
EXTT10=
EXTT11=
EXTT12=
PLAYORDER=
